{
  "asset": {
    "generator": "Khronos glTF Blender I/O v1.8.19",
    "version": "2.0"
  },
  "extensionsUsed": [
    "KHR_texture_transform"
  ],
  "extensionsRequired": [
    "KHR_texture_transform"
  ],
  "scene": 0,
  "scenes": [
    {
      "name": "Scene",
      "nodes": [
        0
      ]
    }
  ],
  "nodes": [
    {
      "mesh": 0,
      "name": "sphere_gltf"
    }
  ],
  "materials": [
    {
      "doubleSided": true,
      "name": "running_track",
      "normalTexture": {
        "extensions": {
          "KHR_texture_transform": {
            "offset": [
              -0.999999999999999,
              1.00000004371139
            ],
            "rotation": 1.5707963705062866
          }
        },
        "index": 0
      },
      "pbrMetallicRoughness": {
        "baseColorTexture": {
          "extensions": {
            "KHR_texture_transform": {
              "offset": [
                -0.999999999999999,
                1.00000004371139
              ],
              "rotation": 1.5707963705062866
            }
          },
          "index": 1
        },
        "metallicFactor": 0,
        "metallicRoughnessTexture": {
          "extensions": {
            "KHR_texture_transform": {
              "offset": [
                -0.999999999999999,
                1.00000004371139
              ],
              "rotation": 1.5707963705062866
            }
          },
          "index": 2
        }
      }
    }
  ],
  "meshes": [
    {
      "name": "Sphere.001",
      "primitives": [
        {
          "attributes": {
            "POSITION": 0,
            "NORMAL": 1,
            "TEXCOORD_0": 2
          },
          "indices": 3,
          "material": 0
        }
      ]
    }
  ],
  "textures": [
    {
      "sampler": 0,
      "source": 0
    },
    {
      "sampler": 0,
      "source": 1
    },
    {
      "sampler": 0,
      "source": 2
    }
  ],
  "images": [
    {
      "mimeType": "image/jpeg",
      "name": "running_track_nor_gl_8k",
      "uri": "textures/running_track_nor_gl_2k.jpg"
    },
    {
      "mimeType": "image/jpeg",
      "name": "running_track_diff_8k",
      "uri": "textures/running_track_diff_2k.jpg"
    },
    {
      "mimeType": "image/jpeg",
      "name": "running_track_rough_8k",
      "uri": "textures/running_track_rough_2k.jpg"
    }
  ],
  "accessors": [
    {
      "bufferView": 0,
      "componentType": 5126,
      "count": 53948,
      "max": [
        1.2099037170410156,
        1.2099963426589966,
        1.2099679708480835
      ],
      "min": [
        -1.2099039554595947,
        -1.2099971771240234,
        -1.2099684476852417
      ],
      "type": "VEC3"
    },
    {
      "bufferView": 1,
      "componentType": 5126,
      "count": 53948,
      "type": "VEC3"
    },
    {
      "bufferView": 2,
      "componentType": 5126,
      "count": 53948,
      "type": "VEC2"
    },
    {
      "bufferView": 3,
      "componentType": 5123,
      "count": 322170,
      "type": "SCALAR"
    }
  ],
  "bufferViews": [
    {
      "buffer": 0,
      "byteLength": 647376,
      "byteOffset": 0
    },
    {
      "buffer": 0,
      "byteLength": 647376,
      "byteOffset": 647376
    },
    {
      "buffer": 0,
      "byteLength": 431584,
      "byteOffset": 1294752
    },
    {
      "buffer": 0,
      "byteLength": 644340,
      "byteOffset": 1726336
    }
  ],
  "samplers": [
    {
      "magFilter": 9729,
      "minFilter": 9987
    }
  ],
  "buffers": [
    {
      "byteLength": 2370676,
      "uri": "running_track.bin"
    }
  ]
}